<svg width="20" height="20" viewBox="0 0 20 20" fill="none" xmlns="http://www.w3.org/2000/svg">
<path fill-rule="evenodd" clip-rule="evenodd" d="M7.72967 1.99262C8.82165 0.394953 11.1784 0.394959 12.2704 1.99262L12.7023 2.62457C15.4084 6.58379 17.7333 10.7904 19.6461 15.1881L19.7363 15.3955C20.4103 16.9453 19.392 18.705 17.7124 18.8927C12.5868 19.4656 7.41329 19.4656 2.28766 18.8927C0.608112 18.705 -0.410252 16.9453 0.263803 15.3955L0.354018 15.1881C2.26675 10.7904 4.59171 6.58378 7.29775 2.62457L7.72967 1.99262ZM11.0001 6.99999C11.0001 7.55227 10.5523 7.99999 10.0001 7.99999C9.44778 7.99999 9.00006 7.55227 9.00006 6.99999C9.00006 6.4477 9.44778 5.99999 10.0001 5.99999C10.5523 5.99999 11.0001 6.4477 11.0001 6.99999ZM10.0001 9.74999C10.4143 9.74999 10.7501 10.0858 10.7501 10.5V15.5C10.7501 15.9142 10.4143 16.25 10.0001 16.25C9.58585 16.25 9.25006 15.9142 9.25006 15.5V10.5C9.25006 10.0858 9.58585 9.74999 10.0001 9.74999Z" fill="#170947"/>
</svg>
