<svg width="13" height="16" viewBox="0 0 13 16" fill="none" xmlns="http://www.w3.org/2000/svg">
<path fill-rule="evenodd" clip-rule="evenodd" d="M10.3789 1.00618L10.5489 1.02751C10.9982 1.08951 11.5929 1.17284 11.9295 1.51018C12.2055 1.78551 12.3115 2.23351 12.3749 2.63351L12.4122 2.89084C12.4962 3.49751 12.5182 4.29218 12.3749 5.17484C12.0922 6.91684 11.1649 8.99551 8.83621 10.6048C8.82354 10.7302 8.82288 10.8568 8.82554 10.9835L8.83221 11.1728C8.84288 11.4642 8.85354 11.7555 8.77221 12.0382C8.64554 12.4782 8.19421 12.7682 7.77221 12.9762L7.56554 13.0742L7.29888 13.1915C6.80021 13.4035 6.12688 13.6208 5.70488 13.1982C5.45154 12.9455 5.34754 12.5748 5.26288 12.2062L5.23154 12.0682C5.19573 11.8941 5.15123 11.7218 5.09821 11.5522C5.06488 11.4544 5.02888 11.3555 4.99021 11.2555C4.94765 11.3078 4.90249 11.3578 4.85488 11.4055C4.62488 11.6355 4.28154 11.7962 3.99888 11.9088C3.69021 12.0308 3.34088 12.1375 3.01754 12.2255L2.85154 12.2695L2.53354 12.3488L2.24554 12.4155L1.90088 12.4888L1.68554 12.5308C1.57815 12.5507 1.46753 12.5442 1.36323 12.5118C1.25892 12.4794 1.16407 12.4221 1.08684 12.3449C1.00961 12.2677 0.952326 12.1728 0.919928 12.0685C0.887531 11.9642 0.880992 11.8536 0.900877 11.7462L0.95821 11.4588L1.06088 10.9935L1.14354 10.6535L1.20621 10.4135C1.29421 10.0908 1.40088 9.74151 1.52354 9.43351C1.63554 9.15018 1.79621 8.80684 2.02621 8.57684L2.07954 8.52551L2.03688 8.50818C1.92293 8.4649 1.80752 8.42555 1.69088 8.39018L1.50621 8.33351C1.04354 8.19351 0.548877 8.04284 0.241543 7.73484C-0.13179 7.36218 -0.00578998 6.79484 0.17421 6.32284L0.247543 6.14018L0.365543 5.87351L0.463543 5.66684C0.671543 5.24551 0.961543 4.79418 1.40154 4.66751C1.63488 4.60084 1.87754 4.59684 2.12154 4.60351L2.26821 4.60818C2.45888 4.61484 2.64888 4.62218 2.83488 4.60418C4.44421 2.27484 6.52288 1.34751 8.26488 1.06484C8.96369 0.950227 9.67478 0.930494 10.3789 1.00618ZM3.83754 9.45618C3.73265 9.37844 3.60725 9.3332 3.47688 9.32609C3.34652 9.31898 3.21693 9.35031 3.10421 9.41618L3.03088 9.46551L2.96888 9.52084L2.88554 9.62618C2.71221 9.87684 2.61354 10.2235 2.53688 10.5475L2.46488 10.8595L2.43088 11.0015L2.55821 10.9708L2.83688 10.9068C3.22221 10.8168 3.64954 10.7002 3.91221 10.4635C4.02642 10.3494 4.09531 10.1976 4.1061 10.0365C4.11689 9.87542 4.06884 9.71587 3.97088 9.58751L3.91621 9.52485L3.90021 9.50951L3.83754 9.45618ZM8.62621 4.80684C8.50242 4.68301 8.35544 4.58477 8.19369 4.51773C8.03193 4.45069 7.85855 4.41617 7.68345 4.41614C7.50835 4.41611 7.33495 4.45057 7.17317 4.51755C7.01139 4.58453 6.86438 4.68272 6.74054 4.80651C6.61671 4.9303 6.51847 5.07728 6.45143 5.23904C6.38439 5.40079 6.34987 5.57417 6.34984 5.74928C6.34981 5.92438 6.38427 6.09777 6.45125 6.25955C6.51823 6.42133 6.61642 6.56834 6.74021 6.69218C6.99022 6.94228 7.32934 7.08282 7.68297 7.08288C8.0366 7.08294 8.37578 6.94252 8.62588 6.69251C8.87598 6.4425 9.01651 6.10338 9.01658 5.74975C9.01664 5.39612 8.87622 5.05694 8.62621 4.80684Z" fill="#9393BA"/>
</svg>
