<svg width="15" height="16" viewBox="0 0 15 16" fill="none" xmlns="http://www.w3.org/2000/svg">
<path d="M10.6995 12.5653C8.44132 8.78308 5.22831 6.26319 3.40169 5.17283C3.04686 4.96102 2.59465 5.0513 2.34938 5.38388C0.173336 8.33446 0.538234 11.3418 1.0296 12.5351C0.671612 14.7342 2.39338 15.0283 3.29901 14.9004C6.09769 15.8778 8.95424 14.6588 10.4735 13.6443C10.8298 13.4063 10.9192 12.9332 10.6995 12.5653Z" fill="#170947"/>
<path d="M14.1346 1.6356C13.2223 0.277769 12.7751 1.1878 12.6066 2.12742C12.5745 2.3061 12.2879 2.39576 12.1488 2.27914C11.5988 1.81801 10.5148 1.20972 8.7328 0.868477C5.72823 0.293135 3.26705 1.79542 2.6917 2.62647C2.23402 3.28757 2.70763 3.94024 3.00629 4.1885C3.00972 4.19136 3.01308 4.19358 3.01704 4.19564C4.76764 5.10469 8.88898 8.03958 11.4177 12.5351C11.8745 13.4234 12.705 13.2307 13.0716 13.0194C13.0772 13.0162 13.0822 13.012 13.0865 13.0072C16.3105 9.4438 14.7863 5.62451 13.3924 3.82977C13.2867 3.69361 13.3948 3.47402 13.5664 3.45786C14.3042 3.38837 15.0303 2.96869 14.1346 1.6356Z" fill="#170947"/>
</svg>
