<svg width="10" height="10" viewBox="0 0 10 10" fill="none" xmlns="http://www.w3.org/2000/svg">
<path d="M9.06585 1.99481C9.35875 1.70191 9.35875 1.22704 9.06585 0.934147C8.77296 0.641254 8.29809 0.641254 8.00519 0.934147L4.99999 3.93935L1.99479 0.934148C1.7019 0.641255 1.22703 0.641255 0.934134 0.934148C0.641241 1.22704 0.641241 1.70191 0.934134 1.99481L3.93933 5.00001L0.934124 8.00522C0.641232 8.29811 0.641231 8.77298 0.934124 9.06588C1.22702 9.35877 1.70189 9.35877 1.99478 9.06588L4.99999 6.06067L8.0052 9.06588C8.29809 9.35877 8.77297 9.35877 9.06586 9.06588C9.35875 8.77298 9.35875 8.29811 9.06586 8.00522L6.06065 5.00001L9.06585 1.99481Z" fill="#051627"/>
</svg>
