<svg width="18" height="18" viewBox="0 0 18 18" fill="none" xmlns="http://www.w3.org/2000/svg">
<path d="M0.25 6C0.25 2.82436 2.82436 0.25 6 0.25H13.0129C13.4271 0.25 13.7629 0.585786 13.7629 1C13.7629 1.41421 13.4271 1.75 13.0129 1.75H6C3.65279 1.75 1.75 3.65279 1.75 6V13.1069C1.75 13.5211 1.41421 13.8569 1 13.8569C0.585786 13.8569 0.25 13.5211 0.25 13.1069V6Z" fill="#FEB24A"/>
<path d="M15.4026 3.79326C12.1616 3.43104 8.83843 3.43104 5.59748 3.79326C4.6742 3.89645 3.93227 4.62304 3.82344 5.55348C3.43906 8.83996 3.43906 12.16 3.82344 15.4465C3.93227 16.377 4.6742 17.1035 5.59748 17.2067C8.83843 17.569 12.1616 17.569 15.4026 17.2067C16.3258 17.1035 17.0678 16.377 17.1766 15.4465C17.561 12.16 17.561 8.83996 17.1766 5.55348C17.0678 4.62304 16.3258 3.89645 15.4026 3.79326Z" fill="#FEB24A"/>
</svg>
