<svg width="13" height="18" viewBox="0 0 13 18" fill="none" xmlns="http://www.w3.org/2000/svg">
<path d="M4.20835 1.5C4.20835 1.15482 4.48818 0.875 4.83335 0.875H8.16669C8.51187 0.875 8.79169 1.15482 8.79169 1.5V2.125H12.3334C12.6785 2.125 12.9584 2.40482 12.9584 2.75C12.9584 3.09518 12.6785 3.375 12.3334 3.375H0.666687C0.321509 3.375 0.041687 3.09518 0.041687 2.75C0.041687 2.40482 0.321509 2.125 0.666687 2.125H4.20835V1.5Z" fill="#EA4E4E"/>
<path fill-rule="evenodd" clip-rule="evenodd" d="M1.69993 5.62065C1.72338 5.40964 1.90174 5.25 2.11405 5.25H10.886C11.0983 5.25 11.2767 5.40964 11.3001 5.62065L11.4669 7.12178C11.7675 9.82759 11.7675 12.5584 11.4669 15.2642L11.4505 15.412C11.341 16.3975 10.5772 17.1833 9.59523 17.3207C7.54177 17.6082 5.45827 17.6082 3.4048 17.3207C2.42283 17.1833 1.65906 16.3975 1.54956 15.412L1.53314 15.2642C1.2325 12.5584 1.2325 9.82759 1.53314 7.12177L1.69993 5.62065ZM5.45835 8.49999C5.45835 8.15482 5.17853 7.87499 4.83335 7.87499C4.48818 7.87499 4.20835 8.15482 4.20835 8.49999L4.20835 14.3333C4.20835 14.6785 4.48818 14.9583 4.83335 14.9583C5.17853 14.9583 5.45835 14.6785 5.45835 14.3333L5.45835 8.49999ZM8.79169 8.49999C8.79169 8.15482 8.51187 7.87499 8.16669 7.87499C7.82151 7.87499 7.54169 8.15482 7.54169 8.49999V14.3333C7.54169 14.6785 7.82151 14.9583 8.16669 14.9583C8.51187 14.9583 8.79169 14.6785 8.79169 14.3333V8.49999Z" fill="#EA4E4E"/>
</svg>
