<svg width="16" height="20" viewBox="0 0 16 20" fill="none" xmlns="http://www.w3.org/2000/svg">
<path d="M10 0.25C10.1381 0.25 10.25 0.361929 10.25 0.5V6.14706C10.25 6.56127 10.5858 6.89706 11 6.89706H15.5C15.6381 6.89706 15.75 7.00899 15.75 7.14706V17C15.75 18.5188 14.5188 19.75 13 19.75H3C1.48122 19.75 0.25 18.5188 0.25 17V3C0.25 1.48122 1.48122 0.25 3 0.25H10Z" fill="#9393BA"/>
<path d="M12.0862 0.638386C11.9426 0.522496 11.75 0.63964 11.75 0.824135V5.14706C11.75 5.28513 11.8619 5.39706 12 5.39706H15.2983C15.416 5.39706 15.4903 5.27302 15.4217 5.17745L12.4085 0.979549C12.3158 0.850358 12.2071 0.735999 12.0862 0.638386Z" fill="#9393BA"/>
</svg>
