<svg width="21" height="20" viewBox="0 0 21 20" fill="none" xmlns="http://www.w3.org/2000/svg">
<g clip-path="url(#clip0_0_2701)">
<path d="M20.9 10C20.9 4.47719 16.4228 0 10.9 0C5.37718 0 0.899994 4.47719 0.899994 10C0.899994 14.9913 4.55687 19.1284 9.33749 19.8785V12.8906H6.79843V10H9.33749V7.79688C9.33749 5.29063 10.8305 3.90625 13.1147 3.90625C14.2087 3.90625 15.3531 4.10156 15.3531 4.10156V6.5625H14.0922C12.8499 6.5625 12.4625 7.33336 12.4625 8.12422V10H15.2359L14.7926 12.8906H12.4625V19.8785C17.2431 19.1284 20.9 14.9913 20.9 10Z" fill="#1877F2"/>
<path d="M14.7926 12.8906L15.2359 10H12.4625V8.12422C12.4625 7.33328 12.8499 6.5625 14.0922 6.5625H15.3531V4.10156C15.3531 4.10156 14.2087 3.90625 13.1146 3.90625C10.8305 3.90625 9.33749 5.29063 9.33749 7.79688V10H6.79843V12.8906H9.33749V19.8785C9.85438 19.9595 10.3768 20.0001 10.9 20C11.4232 20.0001 11.9456 19.9595 12.4625 19.8785V12.8906H14.7926Z" fill="#F2F3F8"/>
</g>
<defs>
<clipPath id="clip0_0_2701">
<rect width="20" height="20" fill="white" transform="translate(0.899994)"/>
</clipPath>
</defs>
</svg>
