<svg width="24" height="24" viewBox="0 0 24 24" fill="none" xmlns="http://www.w3.org/2000/svg">
<path d="M12 0.0241699C10.4241 0.0241699 8.86371 0.334559 7.4078 0.937616C5.95189 1.54067 4.62902 2.42459 3.51472 3.53889C1.26428 5.78933 0 8.84157 0 12.0242C0 17.3282 3.444 21.8282 8.208 23.4242C8.808 23.5202 9 23.1482 9 22.8242V20.7962C5.676 21.5162 4.968 19.1882 4.968 19.1882C4.416 17.7962 3.636 17.4242 3.636 17.4242C2.544 16.6802 3.72 16.7042 3.72 16.7042C4.92 16.7882 5.556 17.9402 5.556 17.9402C6.6 19.7642 8.364 19.2242 9.048 18.9362C9.156 18.1562 9.468 17.6282 9.804 17.3282C7.14 17.0282 4.344 15.9962 4.344 11.4242C4.344 10.0922 4.8 9.02417 5.58 8.17217C5.46 7.87217 5.04 6.62417 5.7 5.00417C5.7 5.00417 6.708 4.68017 9 6.22817C9.948 5.96417 10.98 5.83217 12 5.83217C13.02 5.83217 14.052 5.96417 15 6.22817C17.292 4.68017 18.3 5.00417 18.3 5.00417C18.96 6.62417 18.54 7.87217 18.42 8.17217C19.2 9.02417 19.656 10.0922 19.656 11.4242C19.656 16.0082 16.848 17.0162 14.172 17.3162C14.604 17.6882 15 18.4202 15 19.5362V22.8242C15 23.1482 15.192 23.5322 15.804 23.4242C20.568 21.8162 24 17.3282 24 12.0242C24 10.4483 23.6896 8.88788 23.0866 7.43197C22.4835 5.97606 21.5996 4.65319 20.4853 3.53889C19.371 2.42459 18.0481 1.54067 16.5922 0.937616C15.1363 0.334559 13.5759 0.0241699 12 0.0241699Z" fill="black"/>
</svg>
