<svg width="13" height="16" viewBox="0 0 13 16" fill="none" xmlns="http://www.w3.org/2000/svg">
<path d="M7.99671 1.44676C7.17803 0.601244 5.822 0.601243 5.00332 1.44676L1.00459 5.57653C0.774935 5.81371 0.620614 6.11356 0.561067 6.43828C0.0754341 9.08659 0.0395868 11.7978 0.455031 14.458L0.602117 15.3999C0.648575 15.6973 0.904794 15.9167 1.20588 15.9167H4.00002C4.23013 15.9167 4.41668 15.7301 4.41668 15.5V9.66666H8.58335V15.5C8.58335 15.7301 8.7699 15.9167 9.00002 15.9167H11.7941C12.0952 15.9167 12.3514 15.6974 12.3979 15.3999L12.545 14.458C12.9604 11.7978 12.9246 9.08659 12.4389 6.43828C12.3794 6.11356 12.2251 5.81371 11.9954 5.57654L7.99671 1.44676Z" fill="#9393BA"/>
</svg>
