<svg width="25" height="24" viewBox="0 0 25 24" fill="none" xmlns="http://www.w3.org/2000/svg">
<path d="M13.528 2C14.653 2.003 15.224 2.009 15.717 2.023L15.911 2.03C16.135 2.038 16.356 2.048 16.623 2.06C17.687 2.11 18.413 2.278 19.05 2.525C19.71 2.779 20.266 3.123 20.822 3.678C21.3307 4.17773 21.7242 4.78247 21.975 5.45C22.222 6.087 22.39 6.813 22.44 7.878C22.452 8.144 22.462 8.365 22.47 8.59L22.476 8.784C22.491 9.276 22.497 9.847 22.499 10.972L22.5 11.718V13.028C22.5025 13.7574 22.4948 14.4868 22.477 15.216L22.471 15.41C22.463 15.635 22.453 15.856 22.441 16.122C22.391 17.187 22.221 17.912 21.975 18.55C21.7242 19.2175 21.3307 19.8223 20.822 20.322C20.3223 20.8307 19.7175 21.2242 19.05 21.475C18.413 21.722 17.687 21.89 16.623 21.94L15.911 21.97L15.717 21.976C15.224 21.99 14.653 21.997 13.528 21.999L12.782 22H11.473C10.7433 22.0026 10.0135 21.9949 9.28402 21.977L9.09002 21.971C8.85263 21.962 8.61529 21.9517 8.37802 21.94C7.31402 21.89 6.58802 21.722 5.95002 21.475C5.28285 21.2241 4.67846 20.8306 4.17902 20.322C3.66996 19.8224 3.27613 19.2176 3.02502 18.55C2.77802 17.913 2.61002 17.187 2.56002 16.122L2.53002 15.41L2.52502 15.216C2.50659 14.4868 2.49825 13.7574 2.50002 13.028V10.972C2.49725 10.2426 2.50459 9.5132 2.52202 8.784L2.52902 8.59C2.53702 8.365 2.54702 8.144 2.55902 7.878C2.60902 6.813 2.77702 6.088 3.02402 5.45C3.27571 4.7822 3.67024 4.17744 4.18002 3.678C4.67917 3.16955 5.28321 2.77607 5.95002 2.525C6.58802 2.278 7.31302 2.11 8.37802 2.06C8.64402 2.048 8.86602 2.038 9.09002 2.03L9.28402 2.024C10.0132 2.00623 10.7426 1.99857 11.472 2.001L13.528 2ZM12.5 7C11.1739 7 9.90217 7.52678 8.96449 8.46447C8.0268 9.40215 7.50002 10.6739 7.50002 12C7.50002 13.3261 8.0268 14.5979 8.96449 15.5355C9.90217 16.4732 11.1739 17 12.5 17C13.8261 17 15.0979 16.4732 16.0356 15.5355C16.9732 14.5979 17.5 13.3261 17.5 12C17.5 10.6739 16.9732 9.40215 16.0356 8.46447C15.0979 7.52678 13.8261 7 12.5 7ZM12.5 9C12.894 8.99993 13.2841 9.07747 13.6481 9.22817C14.0121 9.37887 14.3429 9.5998 14.6215 9.87833C14.9001 10.1569 15.1211 10.4875 15.272 10.8515C15.4228 11.2154 15.5005 11.6055 15.5005 11.9995C15.5006 12.3935 15.4231 12.7836 15.2723 13.1476C15.1216 13.5116 14.9007 13.8423 14.6222 14.121C14.3437 14.3996 14.013 14.6206 13.649 14.7714C13.2851 14.9223 12.895 14.9999 12.501 15C11.7054 15 10.9423 14.6839 10.3797 14.1213C9.81709 13.5587 9.50102 12.7956 9.50102 12C9.50102 11.2044 9.81709 10.4413 10.3797 9.87868C10.9423 9.31607 11.7054 9 12.501 9M17.751 5.5C17.4195 5.5 17.1016 5.6317 16.8671 5.86612C16.6327 6.10054 16.501 6.41848 16.501 6.75C16.501 7.08152 16.6327 7.39946 16.8671 7.63388C17.1016 7.8683 17.4195 8 17.751 8C18.0825 8 18.4005 7.8683 18.6349 7.63388C18.8693 7.39946 19.001 7.08152 19.001 6.75C19.001 6.41848 18.8693 6.10054 18.6349 5.86612C18.4005 5.6317 18.0825 5.5 17.751 5.5Z" fill="url(#paint0_radial_0_2705)"/>
<path d="M13.528 2C14.653 2.003 15.224 2.009 15.717 2.023L15.911 2.03C16.135 2.038 16.356 2.048 16.623 2.06C17.687 2.11 18.413 2.278 19.05 2.525C19.71 2.779 20.266 3.123 20.822 3.678C21.3307 4.17773 21.7242 4.78247 21.975 5.45C22.222 6.087 22.39 6.813 22.44 7.878C22.452 8.144 22.462 8.365 22.47 8.59L22.476 8.784C22.491 9.276 22.497 9.847 22.499 10.972L22.5 11.718V13.028C22.5025 13.7574 22.4948 14.4868 22.477 15.216L22.471 15.41C22.463 15.635 22.453 15.856 22.441 16.122C22.391 17.187 22.221 17.912 21.975 18.55C21.7242 19.2175 21.3307 19.8223 20.822 20.322C20.3223 20.8307 19.7175 21.2242 19.05 21.475C18.413 21.722 17.687 21.89 16.623 21.94L15.911 21.97L15.717 21.976C15.224 21.99 14.653 21.997 13.528 21.999L12.782 22H11.473C10.7433 22.0026 10.0135 21.9949 9.28402 21.977L9.09002 21.971C8.85263 21.962 8.61529 21.9517 8.37802 21.94C7.31402 21.89 6.58802 21.722 5.95002 21.475C5.28285 21.2241 4.67846 20.8306 4.17902 20.322C3.66996 19.8224 3.27613 19.2176 3.02502 18.55C2.77802 17.913 2.61002 17.187 2.56002 16.122L2.53002 15.41L2.52502 15.216C2.50659 14.4868 2.49825 13.7574 2.50002 13.028V10.972C2.49725 10.2426 2.50459 9.5132 2.52202 8.784L2.52902 8.59C2.53702 8.365 2.54702 8.144 2.55902 7.878C2.60902 6.813 2.77702 6.088 3.02402 5.45C3.27571 4.7822 3.67024 4.17744 4.18002 3.678C4.67917 3.16955 5.28321 2.77607 5.95002 2.525C6.58802 2.278 7.31302 2.11 8.37802 2.06C8.64402 2.048 8.86602 2.038 9.09002 2.03L9.28402 2.024C10.0132 2.00623 10.7426 1.99857 11.472 2.001L13.528 2ZM12.5 7C11.1739 7 9.90217 7.52678 8.96449 8.46447C8.0268 9.40215 7.50002 10.6739 7.50002 12C7.50002 13.3261 8.0268 14.5979 8.96449 15.5355C9.90217 16.4732 11.1739 17 12.5 17C13.8261 17 15.0979 16.4732 16.0356 15.5355C16.9732 14.5979 17.5 13.3261 17.5 12C17.5 10.6739 16.9732 9.40215 16.0356 8.46447C15.0979 7.52678 13.8261 7 12.5 7ZM12.5 9C12.894 8.99993 13.2841 9.07747 13.6481 9.22817C14.0121 9.37887 14.3429 9.5998 14.6215 9.87833C14.9001 10.1569 15.1211 10.4875 15.272 10.8515C15.4228 11.2154 15.5005 11.6055 15.5005 11.9995C15.5006 12.3935 15.4231 12.7836 15.2723 13.1476C15.1216 13.5116 14.9007 13.8423 14.6222 14.121C14.3437 14.3996 14.013 14.6206 13.649 14.7714C13.2851 14.9223 12.895 14.9999 12.501 15C11.7054 15 10.9423 14.6839 10.3797 14.1213C9.81709 13.5587 9.50102 12.7956 9.50102 12C9.50102 11.2044 9.81709 10.4413 10.3797 9.87868C10.9423 9.31607 11.7054 9 12.501 9M17.751 5.5C17.4195 5.5 17.1016 5.6317 16.8671 5.86612C16.6327 6.10054 16.501 6.41848 16.501 6.75C16.501 7.08152 16.6327 7.39946 16.8671 7.63388C17.1016 7.8683 17.4195 8 17.751 8C18.0825 8 18.4005 7.8683 18.6349 7.63388C18.8693 7.39946 19.001 7.08152 19.001 6.75C19.001 6.41848 18.8693 6.10054 18.6349 5.86612C18.4005 5.6317 18.0825 5.5 17.751 5.5Z" fill="url(#paint1_radial_0_2705)"/>
<defs>
<radialGradient id="paint0_radial_0_2705" cx="0" cy="0" r="1" gradientUnits="userSpaceOnUse" gradientTransform="translate(7.81222 23.5409) rotate(-90) scale(19.822 18.4365)">
<stop stop-color="#FFDD55"/>
<stop offset="0.1" stop-color="#FFDD55"/>
<stop offset="0.5" stop-color="#FF543E"/>
<stop offset="1" stop-color="#C837AB"/>
</radialGradient>
<radialGradient id="paint1_radial_0_2705" cx="0" cy="0" r="1" gradientUnits="userSpaceOnUse" gradientTransform="translate(-0.850796 3.44074) rotate(78.6807) scale(8.86054 36.5243)">
<stop stop-color="#3771C8"/>
<stop offset="0.128" stop-color="#3771C8"/>
<stop offset="1" stop-color="#6600FF" stop-opacity="0"/>
</radialGradient>
</defs>
</svg>
