<svg width="21" height="20" viewBox="0 0 21 20" fill="none" xmlns="http://www.w3.org/2000/svg">
<g clip-path="url(#clip0_0_2697)">
<path d="M10.3 0C4.66671 0 0.299988 4.12641 0.299988 9.7C0.299988 12.6154 1.49475 15.1345 3.44061 16.8746C3.60389 17.0208 3.70249 17.2256 3.70921 17.4448L3.76366 19.2237C3.78108 19.791 4.3671 20.1602 4.88632 19.931L6.87116 19.0547C7.03939 18.9805 7.22806 18.9667 7.4053 19.0155C8.31741 19.2663 9.28811 19.3999 10.3 19.3999C15.9333 19.3999 20.3 15.2735 20.3 9.69992C20.3 4.12633 15.9333 0 10.3 0Z" fill="url(#paint0_radial_0_2697)"/>
<path d="M4.29506 12.5367L7.23256 7.87633C7.69975 7.13492 8.70037 6.95031 9.40147 7.47609L11.7378 9.22844C11.8421 9.30669 11.9691 9.34882 12.0996 9.34844C12.23 9.34806 12.3567 9.30519 12.4606 9.22633L15.6159 6.83164C16.037 6.51203 16.5869 7.01602 16.305 7.46328L13.3675 12.1238C12.9002 12.8651 11.8995 13.0497 11.1985 12.5239L8.86209 10.7716C8.75777 10.6933 8.6308 10.6512 8.50041 10.6516C8.37002 10.652 8.2433 10.6948 8.13944 10.7737L4.98397 13.1684C4.56287 13.4879 4.01311 12.984 4.29506 12.5367Z" fill="#F2F3F8"/>
</g>
<defs>
<radialGradient id="paint0_radial_0_2697" cx="0" cy="0" r="1" gradientUnits="userSpaceOnUse" gradientTransform="translate(385.24 1989.3) scale(2179.2 2179.2)">
<stop stop-color="#0099FF"/>
<stop offset="0.60975" stop-color="#A033FF"/>
<stop offset="0.93482" stop-color="#FF5280"/>
<stop offset="1" stop-color="#FF7061"/>
</radialGradient>
<clipPath id="clip0_0_2697">
<rect width="20" height="20" fill="white" transform="translate(0.299988)"/>
</clipPath>
</defs>
</svg>
