<svg width="17" height="16" viewBox="0 0 17 16" fill="none" xmlns="http://www.w3.org/2000/svg">
<path d="M6.31279 13.9998C6.43641 14.1102 6.62381 13.9899 6.57741 13.8308L4.47785 6.63235C4.43875 6.4983 4.32024 6.40292 4.18099 6.39269C3.8412 6.36773 3.50158 6.33983 3.16215 6.30897L0.353466 6.05364C0.22234 6.04171 0.13004 6.17923 0.19212 6.29535C1.71134 9.13687 3.89901 11.8444 6.31279 13.9998Z" fill="#170947"/>
<path d="M8.37261 15.5215C8.38955 15.5796 8.4395 15.6233 8.5 15.6233C8.5605 15.6233 8.61044 15.5796 8.62738 15.5215L11.1973 6.71043C11.2293 6.60062 11.1437 6.49191 11.0295 6.49681C9.34393 6.56919 7.65607 6.56919 5.97053 6.49681C5.85625 6.49191 5.77068 6.60062 5.8027 6.71043L8.37261 15.5215Z" fill="#170947"/>
<path d="M10.4226 13.8308C10.3762 13.9899 10.5636 14.1102 10.6872 13.9998C13.101 11.8444 15.2886 9.13686 16.8079 6.29535C16.8699 6.17923 16.7776 6.04171 16.6465 6.05363L13.8378 6.30897C13.4984 6.33983 13.1588 6.36773 12.819 6.39269C12.6798 6.40292 12.5612 6.4983 12.5221 6.63235L10.4226 13.8308Z" fill="#170947"/>
<path d="M16.6675 4.79658C16.7945 4.78503 16.862 4.64095 16.7896 4.53597L14.0914 0.623647C13.8581 0.285327 13.4734 0.083313 13.0624 0.083313H10.9877C10.8693 0.083313 10.7886 0.203379 10.8334 0.313017L12.714 4.91583C12.7687 5.04962 12.9034 5.13304 13.0474 5.12165C13.2733 5.1038 13.499 5.08462 13.7247 5.0641L16.6675 4.79658Z" fill="#170947"/>
<path d="M9.47088 0.288441C9.41912 0.164226 9.29775 0.083313 9.16319 0.083313H7.83681C7.70224 0.083313 7.58087 0.164226 7.52911 0.288441L5.56449 5.00354C5.52018 5.10989 5.59455 5.22803 5.70962 5.2336C7.56878 5.3236 9.43121 5.3236 11.2904 5.2336C11.4054 5.22803 11.4798 5.10989 11.4355 5.00354L9.47088 0.288441Z" fill="#170947"/>
<path d="M6.16657 0.313018C6.21136 0.20338 6.13072 0.083313 6.01228 0.083313H3.93757C3.5266 0.083313 3.14188 0.285328 2.90856 0.623647L0.210403 4.53597C0.138005 4.64095 0.205517 4.78503 0.332516 4.79658L3.27532 5.0641C3.50098 5.08462 3.72672 5.1038 3.95254 5.12165C4.09662 5.13304 4.23128 5.04962 4.28595 4.91583L6.16657 0.313018Z" fill="#170947"/>
</svg>
