<svg width="12" height="14" viewBox="0 0 12 14" fill="none" xmlns="http://www.w3.org/2000/svg">
<path d="M1.9849 3.6875C1.82648 3.6457 1.69481 3.5357 1.6255 3.38724C1.55619 3.23878 1.5564 3.0672 1.62608 2.91892L2.84854 0.317287C2.93964 0.123412 3.13467 -0.000264038 3.34888 4.23291e-07C3.56309 0.000265858 3.75781 0.124424 3.84843 0.318524L4.38771 1.47362C4.40699 1.46605 4.4269 1.45947 4.44739 1.45398C7.64742 0.596537 10.9367 2.49558 11.7941 5.69562C12.6516 8.89566 10.7525 12.1849 7.55248 13.0424C4.35244 13.8998 1.0632 12.0008 0.205748 8.80072C-0.0669161 7.78312 -0.0607821 6.75488 0.17803 5.7989C0.251925 5.50309 0.551629 5.32319 0.847437 5.39709C1.14325 5.47098 1.32314 5.77069 1.24925 6.0665C1.0547 6.84527 1.04934 7.683 1.27226 8.51495C1.97188 11.126 4.65569 12.6755 7.26671 11.9758C9.87773 11.2762 11.4272 8.59241 10.7276 5.98139C10.0394 3.41306 7.43141 1.87183 4.86128 2.48798L5.40539 3.65343C5.49601 3.84753 5.46617 4.07653 5.32883 4.24092C5.19149 4.40531 4.97145 4.47542 4.76433 4.42078L1.9849 3.6875Z" fill="#170947"/>
</svg>
