<svg width="21" height="20" viewBox="0 0 21 20" fill="none" xmlns="http://www.w3.org/2000/svg">
<path d="M18.0283 12.0938C17.9461 12.1664 17.8964 12.2691 17.8911 12.3787C17.8425 13.3913 17.7593 14.4027 17.6414 15.411C17.4872 16.7286 16.4218 17.7783 15.0916 17.9269C11.7358 18.302 8.26423 18.302 4.90838 17.9269C3.57827 17.7783 2.51278 16.7286 2.35867 15.411C1.95767 11.9824 1.95767 8.51886 2.35867 5.09033C2.51278 3.77266 3.57827 2.72304 4.90838 2.57438C7.1209 2.3271 9.38643 2.24297 11.6335 2.32176C11.7957 2.32745 11.9338 2.20399 11.9452 2.04202L11.9943 1.339C11.9973 1.29761 12.0014 1.25666 12.0065 1.21617C12.0309 1.02178 11.8961 0.830103 11.7003 0.823167C9.37471 0.740783 7.03275 0.827615 4.74177 1.08367C2.72971 1.30854 1.10538 2.89355 0.868826 4.91608C0.454288 8.46038 0.454288 12.0409 0.868826 15.5852C1.10538 17.6077 2.72971 19.1928 4.74177 19.4176C8.20835 19.8051 11.7917 19.8051 15.2583 19.4176C17.2703 19.1928 18.8946 17.6077 19.1312 15.5852C19.3002 14.1404 19.4003 12.6896 19.4315 11.2376C19.4354 11.0554 19.2119 10.9646 19.0839 11.0944C18.7438 11.4397 18.3917 11.773 18.0283 12.0938Z" fill="#9393BA"/>
<path d="M5.86722 13.5504C5.64599 13.4895 5.49465 13.2858 5.50016 13.0564L5.5594 10.5925C5.64422 7.06456 8.52854 4.24875 12.0575 4.24875L13.3149 4.24875C13.3412 3.62502 13.3771 3.0016 13.4225 2.37869L13.4903 1.44805C13.5317 0.880107 14.165 0.562621 14.6448 0.869236C16.7158 2.19253 18.5162 3.89762 19.95 5.89363L20.4061 6.52857C20.5313 6.70289 20.5313 6.93767 20.4061 7.11199L19.95 7.74693C18.5162 9.74294 16.7158 11.448 14.6448 12.7713C14.2497 13.0238 13.749 12.8531 13.562 12.4678C13.5228 12.3859 13.4975 12.2915 13.4903 12.1925L13.4225 11.2619C13.3683 10.519 13.3278 9.77537 13.3008 9.03137L12.9467 8.97808C10.6905 8.6385 8.45885 9.72726 7.33781 11.7145L6.4355 13.3141C6.39253 13.3902 6.33154 13.4518 6.2607 13.4951C6.14574 13.5653 6.00398 13.5881 5.86722 13.5504Z" fill="#9393BA"/>
</svg>
