<svg width="15" height="20" viewBox="0 0 15 20" fill="none" xmlns="http://www.w3.org/2000/svg">
<path d="M9.82 1.00001C9.82 0.799564 9.70029 0.61849 9.51586 0.539971C9.33143 0.461451 9.11794 0.500663 8.97345 0.639596L7.19549 2.34917C4.54827 4.89458 2.31144 7.83479 0.564606 11.0651C0.523478 11.1378 0.5 11.2217 0.5 11.3112C0.5 11.5873 0.723858 11.8112 1 11.8112H5.31V19C5.31 19.198 5.42684 19.3774 5.60795 19.4574C5.78907 19.5374 6.00033 19.503 6.14671 19.3696L6.94222 18.645C9.72693 16.1083 12.0902 13.1446 13.9432 9.86502L14.4353 8.99417C14.5228 8.83937 14.5215 8.64976 14.4318 8.49619C14.3422 8.34262 14.1778 8.2482 14 8.2482H9.82V1.00001Z" fill="#FEB24A"/>
</svg>
