<svg width="18" height="18" viewBox="0 0 18 18" fill="none" xmlns="http://www.w3.org/2000/svg">
<path fill-rule="evenodd" clip-rule="evenodd" d="M15.4286 18H3.27273C1.46525 18 0 16.4594 0 14.559V1.72244C0 0.672894 0.987278 0.0075112 1.85601 0.324624C1.98011 0.369925 2.1018 0.435278 2.21784 0.522426L2.38152 0.645351C3.19318 1.25491 4.29093 1.25221 5.10488 0.640937C6.24279 -0.213646 7.78318 -0.213646 8.9211 0.640937C9.73504 1.25221 10.8328 1.25491 11.6445 0.645351L11.8081 0.522426C12.7365 -0.174758 14.026 0.522959 14.026 1.72244V9.15179H17.2987C17.686 9.15179 18 9.48191 18 9.88914V15.2964C18 16.7895 16.8487 18 15.4286 18ZM14.2597 10.6265V15.2964C14.2597 15.9751 14.783 16.5253 15.4286 16.5253C16.0741 16.5253 16.5974 15.9751 16.5974 15.2964V10.6265H14.2597ZM10.2857 6.44817C10.2857 6.04094 9.97173 5.71082 9.58442 5.71082H3.97403C3.58671 5.71082 3.27273 6.04094 3.27273 6.44817C3.27273 6.8554 3.58671 7.18552 3.97403 7.18552H9.58442C9.97173 7.18552 10.2857 6.8554 10.2857 6.44817ZM9.35065 9.39757C9.35065 8.99034 9.03667 8.66022 8.64935 8.66022H3.97403C3.58671 8.66022 3.27273 8.99034 3.27273 9.39757C3.27273 9.8048 3.58671 10.1349 3.97403 10.1349H8.64935C9.03667 10.1349 9.35065 9.8048 9.35065 9.39757ZM9.58442 11.6096C9.97173 11.6096 10.2857 11.9397 10.2857 12.347C10.2857 12.7542 9.97173 13.0843 9.58442 13.0843H3.97403C3.58671 13.0843 3.27273 12.7542 3.27273 12.347C3.27273 11.9397 3.58671 11.6096 3.97403 11.6096H9.58442Z" fill="#D9D9D9"/>
<path fill-rule="evenodd" clip-rule="evenodd" d="M15.4286 18H3.27273C1.46525 18 0 16.4594 0 14.559V1.72244C0 0.672894 0.987278 0.0075112 1.85601 0.324624C1.98011 0.369925 2.1018 0.435278 2.21784 0.522426L2.38152 0.645351C3.19318 1.25491 4.29093 1.25221 5.10488 0.640937C6.24279 -0.213646 7.78318 -0.213646 8.9211 0.640937C9.73504 1.25221 10.8328 1.25491 11.6445 0.645351L11.8081 0.522426C12.7365 -0.174758 14.026 0.522959 14.026 1.72244V9.15179H17.2987C17.686 9.15179 18 9.48191 18 9.88914V15.2964C18 16.7895 16.8487 18 15.4286 18ZM14.2597 10.6265V15.2964C14.2597 15.9751 14.783 16.5253 15.4286 16.5253C16.0741 16.5253 16.5974 15.9751 16.5974 15.2964V10.6265H14.2597ZM10.2857 6.44817C10.2857 6.04094 9.97173 5.71082 9.58442 5.71082H3.97403C3.58671 5.71082 3.27273 6.04094 3.27273 6.44817C3.27273 6.8554 3.58671 7.18552 3.97403 7.18552H9.58442C9.97173 7.18552 10.2857 6.8554 10.2857 6.44817ZM9.35065 9.39757C9.35065 8.99034 9.03667 8.66022 8.64935 8.66022H3.97403C3.58671 8.66022 3.27273 8.99034 3.27273 9.39757C3.27273 9.8048 3.58671 10.1349 3.97403 10.1349H8.64935C9.03667 10.1349 9.35065 9.8048 9.35065 9.39757ZM9.58442 11.6096C9.97173 11.6096 10.2857 11.9397 10.2857 12.347C10.2857 12.7542 9.97173 13.0843 9.58442 13.0843H3.97403C3.58671 13.0843 3.27273 12.7542 3.27273 12.347C3.27273 11.9397 3.58671 11.6096 3.97403 11.6096H9.58442Z" fill="url(#paint0_linear_0_1229)"/>
<defs>
<linearGradient id="paint0_linear_0_1229" x1="9" y1="0" x2="9" y2="18" gradientUnits="userSpaceOnUse">
<stop stop-color="#FBCC95"/>
<stop offset="1" stop-color="#F89620"/>
</linearGradient>
</defs>
</svg>
