<svg width="16" height="16" viewBox="0 0 16 16" fill="none" xmlns="http://www.w3.org/2000/svg">
<path fill-rule="evenodd" clip-rule="evenodd" d="M0.916656 8.00001C0.916656 4.08799 4.08797 0.916672 7.99999 0.916672C11.912 0.916672 15.0833 4.08799 15.0833 8.00001C15.0833 11.912 11.912 15.0833 7.99999 15.0833C4.08797 15.0833 0.916656 11.912 0.916656 8.00001ZM8.62499 3.83334C8.62499 3.48816 8.34517 3.20834 7.99999 3.20834C7.65481 3.20834 7.37499 3.48816 7.37499 3.83334V8.00001C7.37499 8.2155 7.486 8.41579 7.66874 8.53L10.1687 10.0925C10.4615 10.2754 10.847 10.1865 11.03 9.89375C11.2129 9.60105 11.124 9.21545 10.8312 9.03251L8.62499 7.6536V3.83334Z" fill="#170947"/>
</svg>
