<svg width="32" height="32" viewBox="0 0 32 32" fill="none" xmlns="http://www.w3.org/2000/svg">
<path d="M16 0C7.164 0 0 7.164 0 16C0 24.836 7.164 32 16 32C24.836 32 32 24.836 32 16C32 7.164 24.836 0 16 0ZM10.536 8.92933H21.464C23.4707 8.92933 24.7467 11.1 23.7373 12.8493L16.992 24.536C16.8912 24.7098 16.7465 24.8541 16.5724 24.9544C16.3983 25.0547 16.2009 25.1075 16 25.1075C15.7991 25.1075 15.6017 25.0547 15.4276 24.9544C15.2535 24.8541 15.1088 24.7098 15.008 24.536L8.26533 12.8493C7.25467 11.0973 8.528 8.92933 10.536 8.92933ZM16.9947 10.924V21.0307L18.464 18.1933L22.0053 11.852C22.0596 11.7573 22.0878 11.6499 22.0873 11.5408C22.0867 11.4316 22.0573 11.3246 22.0021 11.2304C21.9469 11.1363 21.8679 11.0583 21.7729 11.0045C21.6779 10.9507 21.5705 10.923 21.4613 10.924H16.9947ZM10.5333 10.9267C10.4244 10.9255 10.3171 10.9531 10.2223 11.0066C10.1275 11.0602 10.0485 11.1379 9.9933 11.2318C9.9381 11.3256 9.90867 11.4324 9.90797 11.5413C9.90728 11.6503 9.93534 11.7574 9.98933 11.852L13.5333 18.1907L15.0027 21.0307V10.9267H10.5333Z" fill="#20A2E4"/>
</svg>
