<svg width="21" height="20" viewBox="0 0 21 20" fill="none" xmlns="http://www.w3.org/2000/svg">
<path d="M10.101 0C15.624 0 20.101 4.477 20.101 10C20.101 15.523 15.624 20 10.101 20C8.33372 20.003 6.59755 19.5353 5.07097 18.645L0.104968 20L1.45697 15.032C0.565926 13.5049 0.0978705 11.768 0.100967 10C0.100967 4.477 4.57797 0 10.101 0ZM6.69297 5.3L6.49297 5.308C6.36366 5.31691 6.23731 5.35087 6.12097 5.408C6.01254 5.46951 5.91353 5.5463 5.82697 5.636C5.70697 5.749 5.63897 5.847 5.56597 5.942C5.19609 6.4229 4.99694 7.01331 4.99997 7.62C5.00197 8.11 5.12997 8.587 5.32997 9.033C5.73897 9.935 6.41197 10.89 7.29997 11.775C7.51397 11.988 7.72397 12.202 7.94997 12.401C9.0534 13.3724 10.3682 14.073 11.79 14.447L12.358 14.534C12.543 14.544 12.728 14.53 12.914 14.521C13.2052 14.5056 13.4895 14.4268 13.747 14.29C13.8778 14.2223 14.0056 14.1489 14.13 14.07C14.13 14.07 14.1723 14.0413 14.255 13.98C14.39 13.88 14.473 13.809 14.585 13.692C14.669 13.6053 14.739 13.5047 14.795 13.39C14.873 13.227 14.951 12.916 14.983 12.657C15.007 12.459 15 12.351 14.997 12.284C14.993 12.177 14.904 12.066 14.807 12.019L14.225 11.758C14.225 11.758 13.355 11.379 12.823 11.137C12.7673 11.1128 12.7076 11.0989 12.647 11.096C12.5785 11.0888 12.5094 11.0965 12.4442 11.1184C12.3789 11.1403 12.3192 11.176 12.269 11.223C12.264 11.221 12.197 11.278 11.474 12.154C11.4325 12.2098 11.3753 12.2519 11.3098 12.2751C11.2442 12.2982 11.1733 12.3013 11.106 12.284C11.0408 12.2666 10.977 12.2446 10.915 12.218C10.791 12.166 10.748 12.146 10.663 12.11C10.0888 11.8599 9.55741 11.5215 9.08797 11.107C8.96197 10.997 8.84497 10.877 8.72497 10.761C8.33158 10.3842 7.98872 9.95799 7.70497 9.493L7.64597 9.398C7.60423 9.3338 7.57001 9.26501 7.54397 9.193C7.50597 9.046 7.60497 8.928 7.60497 8.928C7.60497 8.928 7.84797 8.662 7.96097 8.518C8.07097 8.378 8.16397 8.242 8.22397 8.145C8.34197 7.955 8.37897 7.76 8.31697 7.609C8.03697 6.925 7.74763 6.24467 7.44897 5.568C7.38997 5.434 7.21497 5.338 7.05597 5.319C7.00197 5.31233 6.94797 5.307 6.89397 5.303C6.7597 5.2953 6.62506 5.29664 6.49097 5.307L6.69297 5.3Z" fill="#23D366"/>
</svg>
